M48
; DRILL file {KiCad 7.0.1} date Fri Apr 14 16:29:36 2023
; FORMAT={-:-/ absolute / metric / decimal}
; #@! TF.CreationDate,2023-04-14T16:29:36+02:00
; #@! TF.GenerationSoftware,Kicad,Pcbnew,7.0.1
; #@! TF.FileFunction,Plated,1,2,PTH
FMAT,2
METRIC
; #@! TA.AperFunction,Plated,PTH,ViaDrill
T1C0.400
; #@! TA.AperFunction,Plated,PTH,ComponentDrill
T2C0.700
; #@! TA.AperFunction,Plated,PTH,ComponentDrill
T3C0.762
; #@! TA.AperFunction,Plated,PTH,ComponentDrill
T4C0.800
; #@! TA.AperFunction,Plated,PTH,ComponentDrill
T5C0.950
; #@! TA.AperFunction,Plated,PTH,ComponentDrill
T6C1.000
; #@! TA.AperFunction,Plated,PTH,ComponentDrill
T7C1.010
; #@! TA.AperFunction,Plated,PTH,ComponentDrill
T8C1.100
; #@! TA.AperFunction,Plated,PTH,ComponentDrill
T9C1.110
; #@! TA.AperFunction,Plated,PTH,ComponentDrill
T10C1.200
%
G90
G05
T1
X105.6Y-34.2
X105.8Y-25.6
X105.8Y-28.8
X106.0Y-54.5
X106.8Y-79.0
X107.15Y-48.625
X107.35Y-54.225
X108.6Y-32.6
X108.6Y-75.2
X109.2Y-46.8
X110.4Y-25.6
X111.002Y-92.662
X111.402Y-89.462
X112.165Y-96.425
X112.4Y-63.0
X112.402Y-78.862
X113.0Y-55.8
X113.2Y-46.6
X113.75Y-57.025
X114.13Y-53.155
X114.6Y-81.8
X115.2Y-31.2
X115.665Y-89.175
X117.002Y-85.062
X117.38Y-56.155
X118.8Y-40.6
X118.8Y-46.6
X119.402Y-95.862
X119.5Y-43.275
X120.002Y-85.062
X120.802Y-81.662
X121.2Y-77.4
X121.45Y-58.525
X121.6Y-115.0
X121.665Y-93.175
X121.915Y-90.175
X122.2Y-106.2
X122.6Y-111.4
X122.8Y-119.2
X123.2Y-37.6
X123.203Y-84.662
X123.203Y-95.462
X123.55Y-71.825
X124.4Y-77.4
X124.75Y-44.025
X125.4Y-37.3
X125.602Y-85.263
X125.65Y-38.45
X125.95Y-50.425
X125.95Y-52.425
X126.125Y-70.875
X126.6Y-116.4
X127.0Y-93.0
X127.2Y-111.4
X127.275Y-59.65
X127.415Y-89.675
X127.75Y-44.275
X127.75Y-48.025
X128.0Y-77.4
X128.002Y-97.462
X129.002Y-86.263
X129.202Y-90.263
X129.403Y-82.462
X130.25Y-45.025
X130.4Y-95.0
X130.95Y-58.225
X130.951Y-36.8
X131.0Y-39.4
X131.15Y-52.225
X131.2Y-88.2
X131.25Y-37.85
X132.6Y-103.8
X133.15Y-48.625
X133.4Y-35.2
X133.4Y-42.0
X133.8Y-82.2
X134.0Y-85.6
X134.2Y-66.6
X134.4Y-116.8
X135.15Y-64.025
X135.38Y-52.905
X136.15Y-48.625
X136.4Y-27.2
X136.6Y-78.8
X136.88Y-47.655
X137.0Y-89.8
X137.15Y-51.825
X137.15Y-62.425
X137.95Y-70.625
X138.2Y-34.0
X138.4Y-41.8
X138.4Y-55.4
X138.63Y-47.655
X138.75Y-51.425
X138.8Y-82.1
X139.2Y-86.2
X139.63Y-62.655
X139.75Y-69.025
X139.95Y-72.625
X140.2Y-116.2
X140.55Y-67.025
X140.55Y-89.025
X140.63Y-47.655
X140.88Y-55.655
X141.0Y-105.2
X141.2Y-101.8
X144.13Y-76.155
X144.38Y-33.405
X144.38Y-47.905
X144.38Y-86.405
X144.38Y-88.905
X144.63Y-50.655
X144.63Y-53.155
X144.63Y-56.905
X144.63Y-72.655
X146.0Y-70.4
X146.0Y-121.8
X146.13Y-56.905
X146.13Y-60.6
X146.13Y-77.155
X146.38Y-66.155
X146.38Y-72.405
X146.4Y-29.6
X146.8Y-64.2
X147.0Y-46.775
X147.0Y-50.275
X147.0Y-53.275
X147.13Y-61.405
X147.38Y-56.905
X147.38Y-58.905
X147.4Y-27.2
X147.5Y-86.275
X147.88Y-35.405
X148.6Y-108.0
X148.88Y-59.405
X149.13Y-56.905
X149.13Y-72.655
X149.13Y-76.655
X149.38Y-36.905
X149.38Y-65.905
X149.6Y-103.8
X149.63Y-88.905
X150.4Y-71.0
X150.5Y-32.275
X150.63Y-61.655
X150.8Y-42.0
X151.0Y-39.4
X151.0Y-45.6
X151.2Y-49.2
X151.2Y-53.6
X151.6Y-110.8
X151.6Y-121.6
X151.75Y-56.775
X151.75Y-59.025
X152.0Y-63.0
X152.75Y-66.425
X152.8Y-27.2
X153.0Y-71.0
X153.38Y-86.655
X153.6Y-52.0
X153.63Y-32.905
X153.8Y-47.4
X153.8Y-122.0
X154.0Y-108.2
X154.6Y-44.0
X154.6Y-58.2
X154.95Y-68.425
X155.0Y-28.025
X155.38Y-88.905
X155.63Y-35.405
X155.63Y-77.155
X155.88Y-60.405
X155.88Y-63.155
X155.88Y-72.405
X155.88Y-81.155
X155.88Y-85.655
X155.95Y-66.625
X155.95Y-69.625
X156.0Y-40.2
X156.25Y-37.525
X156.35Y-42.95
X158.2Y-103.4
X158.2Y-105.2
X159.0Y-97.6
X159.38Y-75.655
X159.4Y-55.4
X159.4Y-121.6
X159.63Y-64.905
X159.63Y-73.405
X159.65Y-60.55
X159.9Y-37.8
X160.2Y-35.0
X160.28Y-68.23
X160.7Y-55.6
X160.8Y-27.6
X160.8Y-51.3
X161.0Y-103.6
X161.0Y-107.8
X161.4Y-77.8
X161.8Y-61.8
X161.8Y-99.8
X162.0Y-56.8
X162.0Y-76.0
X162.0Y-121.8
X162.2Y-46.4
X162.8Y-44.0
X163.0Y-70.2
X163.2Y-77.8
X163.2Y-82.8
X163.2Y-86.0
X163.2Y-92.6
X163.6Y-55.2
X164.0Y-38.0
X164.0Y-107.0
X164.2Y-97.4
X164.4Y-43.0
X166.4Y-68.0
X166.4Y-74.4
X166.6Y-79.8
X166.8Y-87.6
X167.0Y-93.4
X167.4Y-63.8
X167.8Y-57.6
X167.8Y-72.4
X168.8Y-98.8
X169.0Y-33.0
X169.0Y-95.2
X169.4Y-68.2
X172.4Y-92.0
X172.8Y-36.6
X174.4Y-42.6
X175.2Y-95.4
X175.4Y-26.8
X179.0Y-27.0
X179.6Y-80.6
X179.6Y-84.8
X180.6Y-34.6
X181.6Y-64.0
X182.0Y-27.0
X182.0Y-41.4
X185.0Y-72.2
X185.4Y-60.6
X185.4Y-63.4
X186.2Y-76.8
T2
X124.94Y-59.75
X124.94Y-64.75
X124.94Y-69.5
X124.94Y-74.25
X132.56Y-59.75
X132.56Y-64.75
X132.56Y-69.5
X132.56Y-74.25
X176.45Y-35.24
X176.45Y-42.86
X177.75Y-53.19
X177.75Y-60.81
X178.7Y-35.24
X178.7Y-42.86
X180.25Y-53.19
X180.25Y-60.81
T3
X110.0Y-66.75
X114.1Y-59.8
X114.1Y-73.5
X115.0Y-66.75
X118.1Y-66.75
X119.1Y-59.8
X119.1Y-73.5
X123.1Y-66.75
X167.21Y-102.24
X167.29Y-107.32
X167.29Y-109.86
X167.295Y-104.78
X172.38Y-87.08
X172.385Y-117.478
X174.92Y-87.0
X174.925Y-117.398
X177.46Y-87.0
X177.465Y-117.398
X180.0Y-87.0
X180.005Y-117.398
T4
X107.87Y-87.305
X108.37Y-83.305
X110.37Y-83.305
X110.37Y-87.305
X112.75Y-27.345
X112.75Y-29.345
X113.0Y-34.845
X113.0Y-36.845
X116.165Y-86.925
X116.62Y-82.425
X117.25Y-27.3
X117.25Y-29.8
X117.25Y-34.8
X117.25Y-37.3
X118.62Y-82.425
X118.665Y-86.925
X124.415Y-87.175
X124.87Y-83.175
X126.87Y-83.175
X126.915Y-87.175
X129.95Y-66.975
X130.0Y-62.225
X130.0Y-71.75
X130.0Y-76.75
X132.45Y-66.975
X132.5Y-62.225
X132.5Y-71.75
X132.5Y-76.75
X153.5Y-113.0
X153.5Y-115.5
X157.75Y-113.045
X157.75Y-115.045
X162.25Y-112.75
X162.25Y-115.25
T5
X108.555Y-91.655
X108.555Y-94.155
X108.555Y-96.655
X108.555Y-99.155
X111.5Y-50.845
X114.0Y-50.845
X116.5Y-50.845
X116.69Y-91.675
X116.69Y-94.175
X116.69Y-96.675
X116.69Y-99.175
X119.0Y-50.845
X121.5Y-50.845
X121.75Y-27.475
X121.75Y-34.775
X124.0Y-50.845
X124.25Y-27.475
X124.25Y-34.775
X125.165Y-91.675
X125.165Y-94.175
X125.165Y-96.675
X125.165Y-99.175
X126.75Y-27.475
X126.75Y-34.775
X136.0Y-35.275
X136.0Y-37.775
X136.0Y-40.275
X136.0Y-42.775
X136.0Y-91.75
X136.0Y-94.25
X136.0Y-96.75
X136.0Y-99.25
X165.75Y-30.0
X165.75Y-37.25
X165.75Y-48.0
X165.75Y-55.5
X165.75Y-65.75
X168.25Y-30.0
X168.25Y-37.25
X168.25Y-48.0
X168.25Y-55.5
X168.25Y-65.75
X170.75Y-30.0
X170.75Y-37.25
X170.75Y-48.0
X170.75Y-55.5
X170.75Y-65.75
X172.472Y-78.024
X173.25Y-48.0
X173.25Y-55.5
X173.25Y-65.75
X174.972Y-78.024
X175.75Y-48.0
X175.75Y-65.75
X177.472Y-78.024
X179.972Y-78.024
T6
X106.5Y-56.905
X106.5Y-59.445
X106.5Y-61.985
X106.5Y-64.525
X107.0Y-37.445
X107.0Y-39.985
X107.0Y-42.525
X107.0Y-45.065
X112.75Y-42.0
X115.25Y-42.0
X122.25Y-41.975
X124.75Y-41.975
X150.55Y-123.4
X150.55Y-125.9
X158.3Y-123.4
X158.3Y-125.9
X184.3Y-28.66
X184.3Y-31.2
X184.3Y-33.74
X184.3Y-36.28
X184.3Y-38.82
X184.3Y-41.36
X184.3Y-43.9
X184.3Y-46.44
X184.3Y-48.98
X184.3Y-51.52
X184.3Y-54.06
X184.3Y-56.6
T7
X124.95Y-106.05
X124.95Y-110.25
X135.15Y-107.25
X135.15Y-111.45
T8
X145.495Y-107.51
X145.495Y-110.05
X145.495Y-112.59
X157.21Y-109.73
X159.75Y-109.73
X162.29Y-109.73
T9
X142.63Y-28.885
X142.63Y-31.425
X142.63Y-33.965
X142.63Y-36.505
X142.63Y-39.045
X142.63Y-41.585
X142.63Y-44.125
X142.63Y-46.665
X142.63Y-49.205
X142.63Y-51.745
X142.63Y-54.285
X142.63Y-56.825
X142.63Y-59.365
X142.63Y-61.905
X142.63Y-64.445
X142.63Y-66.985
X142.63Y-69.525
X142.63Y-72.065
X142.63Y-74.605
X142.63Y-77.145
X142.63Y-79.685
X142.63Y-82.225
X142.63Y-84.765
X142.63Y-87.305
X145.17Y-74.605
X145.68Y-35.235
X145.68Y-37.775
X145.68Y-40.315
X145.68Y-42.855
X145.68Y-45.395
X147.71Y-74.605
X150.25Y-74.605
X152.79Y-74.605
X155.33Y-31.425
X155.33Y-74.605
X157.87Y-28.885
X157.87Y-31.425
X157.87Y-33.965
X157.87Y-36.505
X157.87Y-39.045
X157.87Y-41.585
X157.87Y-44.125
X157.87Y-46.665
X157.87Y-49.205
X157.87Y-51.745
X157.87Y-54.285
X157.87Y-56.825
X157.87Y-59.365
X157.87Y-61.905
X157.87Y-64.445
X157.87Y-66.985
X157.87Y-69.525
X157.87Y-72.065
X157.87Y-74.605
X157.87Y-77.145
X157.87Y-79.685
X157.87Y-82.225
X157.87Y-84.765
X157.87Y-87.305
T10
X124.5Y-122.95
X129.5Y-122.95
X136.6Y-123.0
X141.6Y-123.0
T6
G00X112.5Y-108.042
M15
G01X112.5Y-110.042
M16
G05
G00X112.5Y-121.792
M15
G01X112.5Y-123.792
M16
G05
G00X114.5Y-113.742
M15
G01X116.5Y-113.742
M16
G05
G00X114.5Y-127.492
M15
G01X116.5Y-127.492
M16
G05
G00X118.5Y-108.042
M15
G01X118.5Y-110.042
M16
G05
G00X118.5Y-121.792
M15
G01X118.5Y-123.792
M16
G05
T0
M30
