%TF.GenerationSoftware,KiCad,Pcbnew,7.0.1*%
%TF.CreationDate,2023-04-14T16:31:11+02:00*%
%TF.ProjectId,AutkoPcb,4175746b-6f50-4636-922e-6b696361645f,rev?*%
%TF.SameCoordinates,Original*%
%TF.FileFunction,Drillmap*%
%TF.FilePolarity,Positive*%
%FSLAX45Y45*%
G04 Gerber Fmt 4.5, Leading zero omitted, Abs format (unit mm)*
G04 Created by KiCad (PCBNEW 7.0.1) date 2023-04-14 16:31:11*
%MOMM*%
%LPD*%
G01*
G04 APERTURE LIST*
%ADD10C,0.100000*%
%ADD11C,0.200000*%
%ADD12C,0.350000*%
G04 APERTURE END LIST*
D10*
X10463000Y-2420500D02*
X18838000Y-2420500D01*
X18838000Y-12965500D01*
X10463000Y-12965500D01*
X10463000Y-2420500D01*
D11*
D12*
X15800000Y-9132000D02*
X16150000Y-9482000D01*
X16150000Y-9132000D02*
X15800000Y-9482000D01*
D11*
X10705619Y-13283024D02*
X10705619Y-13083024D01*
X10705619Y-13083024D02*
X10753238Y-13083024D01*
X10753238Y-13083024D02*
X10781810Y-13092548D01*
X10781810Y-13092548D02*
X10800857Y-13111595D01*
X10800857Y-13111595D02*
X10810381Y-13130643D01*
X10810381Y-13130643D02*
X10819905Y-13168738D01*
X10819905Y-13168738D02*
X10819905Y-13197309D01*
X10819905Y-13197309D02*
X10810381Y-13235405D01*
X10810381Y-13235405D02*
X10800857Y-13254452D01*
X10800857Y-13254452D02*
X10781810Y-13273500D01*
X10781810Y-13273500D02*
X10753238Y-13283024D01*
X10753238Y-13283024D02*
X10705619Y-13283024D01*
X10905619Y-13283024D02*
X10905619Y-13149690D01*
X10905619Y-13187786D02*
X10915143Y-13168738D01*
X10915143Y-13168738D02*
X10924667Y-13159214D01*
X10924667Y-13159214D02*
X10943714Y-13149690D01*
X10943714Y-13149690D02*
X10962762Y-13149690D01*
X11029429Y-13283024D02*
X11029429Y-13149690D01*
X11029429Y-13083024D02*
X11019905Y-13092548D01*
X11019905Y-13092548D02*
X11029429Y-13102071D01*
X11029429Y-13102071D02*
X11038952Y-13092548D01*
X11038952Y-13092548D02*
X11029429Y-13083024D01*
X11029429Y-13083024D02*
X11029429Y-13102071D01*
X11153238Y-13283024D02*
X11134190Y-13273500D01*
X11134190Y-13273500D02*
X11124667Y-13254452D01*
X11124667Y-13254452D02*
X11124667Y-13083024D01*
X11258000Y-13283024D02*
X11238952Y-13273500D01*
X11238952Y-13273500D02*
X11229428Y-13254452D01*
X11229428Y-13254452D02*
X11229428Y-13083024D01*
X11486571Y-13283024D02*
X11486571Y-13083024D01*
X11486571Y-13083024D02*
X11553238Y-13225881D01*
X11553238Y-13225881D02*
X11619905Y-13083024D01*
X11619905Y-13083024D02*
X11619905Y-13283024D01*
X11800857Y-13283024D02*
X11800857Y-13178262D01*
X11800857Y-13178262D02*
X11791333Y-13159214D01*
X11791333Y-13159214D02*
X11772286Y-13149690D01*
X11772286Y-13149690D02*
X11734190Y-13149690D01*
X11734190Y-13149690D02*
X11715143Y-13159214D01*
X11800857Y-13273500D02*
X11781809Y-13283024D01*
X11781809Y-13283024D02*
X11734190Y-13283024D01*
X11734190Y-13283024D02*
X11715143Y-13273500D01*
X11715143Y-13273500D02*
X11705619Y-13254452D01*
X11705619Y-13254452D02*
X11705619Y-13235405D01*
X11705619Y-13235405D02*
X11715143Y-13216357D01*
X11715143Y-13216357D02*
X11734190Y-13206833D01*
X11734190Y-13206833D02*
X11781809Y-13206833D01*
X11781809Y-13206833D02*
X11800857Y-13197309D01*
X11896095Y-13149690D02*
X11896095Y-13349690D01*
X11896095Y-13159214D02*
X11915143Y-13149690D01*
X11915143Y-13149690D02*
X11953238Y-13149690D01*
X11953238Y-13149690D02*
X11972286Y-13159214D01*
X11972286Y-13159214D02*
X11981809Y-13168738D01*
X11981809Y-13168738D02*
X11991333Y-13187786D01*
X11991333Y-13187786D02*
X11991333Y-13244928D01*
X11991333Y-13244928D02*
X11981809Y-13263976D01*
X11981809Y-13263976D02*
X11972286Y-13273500D01*
X11972286Y-13273500D02*
X11953238Y-13283024D01*
X11953238Y-13283024D02*
X11915143Y-13283024D01*
X11915143Y-13283024D02*
X11896095Y-13273500D01*
X12077048Y-13263976D02*
X12086571Y-13273500D01*
X12086571Y-13273500D02*
X12077048Y-13283024D01*
X12077048Y-13283024D02*
X12067524Y-13273500D01*
X12067524Y-13273500D02*
X12077048Y-13263976D01*
X12077048Y-13263976D02*
X12077048Y-13283024D01*
X12077048Y-13159214D02*
X12086571Y-13168738D01*
X12086571Y-13168738D02*
X12077048Y-13178262D01*
X12077048Y-13178262D02*
X12067524Y-13168738D01*
X12067524Y-13168738D02*
X12077048Y-13159214D01*
X12077048Y-13159214D02*
X12077048Y-13178262D01*
X10258000Y-13510500D02*
X10458000Y-13710500D01*
X10458000Y-13510500D02*
X10258000Y-13710500D01*
X10686571Y-13503024D02*
X10810381Y-13503024D01*
X10810381Y-13503024D02*
X10743714Y-13579214D01*
X10743714Y-13579214D02*
X10772286Y-13579214D01*
X10772286Y-13579214D02*
X10791333Y-13588738D01*
X10791333Y-13588738D02*
X10800857Y-13598262D01*
X10800857Y-13598262D02*
X10810381Y-13617309D01*
X10810381Y-13617309D02*
X10810381Y-13664928D01*
X10810381Y-13664928D02*
X10800857Y-13683976D01*
X10800857Y-13683976D02*
X10791333Y-13693500D01*
X10791333Y-13693500D02*
X10772286Y-13703024D01*
X10772286Y-13703024D02*
X10715143Y-13703024D01*
X10715143Y-13703024D02*
X10696095Y-13693500D01*
X10696095Y-13693500D02*
X10686571Y-13683976D01*
X10896095Y-13683976D02*
X10905619Y-13693500D01*
X10905619Y-13693500D02*
X10896095Y-13703024D01*
X10896095Y-13703024D02*
X10886571Y-13693500D01*
X10886571Y-13693500D02*
X10896095Y-13683976D01*
X10896095Y-13683976D02*
X10896095Y-13703024D01*
X11086571Y-13503024D02*
X10991333Y-13503024D01*
X10991333Y-13503024D02*
X10981810Y-13598262D01*
X10981810Y-13598262D02*
X10991333Y-13588738D01*
X10991333Y-13588738D02*
X11010381Y-13579214D01*
X11010381Y-13579214D02*
X11058000Y-13579214D01*
X11058000Y-13579214D02*
X11077048Y-13588738D01*
X11077048Y-13588738D02*
X11086571Y-13598262D01*
X11086571Y-13598262D02*
X11096095Y-13617309D01*
X11096095Y-13617309D02*
X11096095Y-13664928D01*
X11096095Y-13664928D02*
X11086571Y-13683976D01*
X11086571Y-13683976D02*
X11077048Y-13693500D01*
X11077048Y-13693500D02*
X11058000Y-13703024D01*
X11058000Y-13703024D02*
X11010381Y-13703024D01*
X11010381Y-13703024D02*
X10991333Y-13693500D01*
X10991333Y-13693500D02*
X10981810Y-13683976D01*
X11219905Y-13503024D02*
X11238952Y-13503024D01*
X11238952Y-13503024D02*
X11258000Y-13512548D01*
X11258000Y-13512548D02*
X11267524Y-13522071D01*
X11267524Y-13522071D02*
X11277048Y-13541119D01*
X11277048Y-13541119D02*
X11286571Y-13579214D01*
X11286571Y-13579214D02*
X11286571Y-13626833D01*
X11286571Y-13626833D02*
X11277048Y-13664928D01*
X11277048Y-13664928D02*
X11267524Y-13683976D01*
X11267524Y-13683976D02*
X11258000Y-13693500D01*
X11258000Y-13693500D02*
X11238952Y-13703024D01*
X11238952Y-13703024D02*
X11219905Y-13703024D01*
X11219905Y-13703024D02*
X11200857Y-13693500D01*
X11200857Y-13693500D02*
X11191333Y-13683976D01*
X11191333Y-13683976D02*
X11181810Y-13664928D01*
X11181810Y-13664928D02*
X11172286Y-13626833D01*
X11172286Y-13626833D02*
X11172286Y-13579214D01*
X11172286Y-13579214D02*
X11181810Y-13541119D01*
X11181810Y-13541119D02*
X11191333Y-13522071D01*
X11191333Y-13522071D02*
X11200857Y-13512548D01*
X11200857Y-13512548D02*
X11219905Y-13503024D01*
X11410381Y-13503024D02*
X11429429Y-13503024D01*
X11429429Y-13503024D02*
X11448476Y-13512548D01*
X11448476Y-13512548D02*
X11458000Y-13522071D01*
X11458000Y-13522071D02*
X11467524Y-13541119D01*
X11467524Y-13541119D02*
X11477048Y-13579214D01*
X11477048Y-13579214D02*
X11477048Y-13626833D01*
X11477048Y-13626833D02*
X11467524Y-13664928D01*
X11467524Y-13664928D02*
X11458000Y-13683976D01*
X11458000Y-13683976D02*
X11448476Y-13693500D01*
X11448476Y-13693500D02*
X11429429Y-13703024D01*
X11429429Y-13703024D02*
X11410381Y-13703024D01*
X11410381Y-13703024D02*
X11391333Y-13693500D01*
X11391333Y-13693500D02*
X11381809Y-13683976D01*
X11381809Y-13683976D02*
X11372286Y-13664928D01*
X11372286Y-13664928D02*
X11362762Y-13626833D01*
X11362762Y-13626833D02*
X11362762Y-13579214D01*
X11362762Y-13579214D02*
X11372286Y-13541119D01*
X11372286Y-13541119D02*
X11381809Y-13522071D01*
X11381809Y-13522071D02*
X11391333Y-13512548D01*
X11391333Y-13512548D02*
X11410381Y-13503024D01*
X11562762Y-13703024D02*
X11562762Y-13569690D01*
X11562762Y-13588738D02*
X11572286Y-13579214D01*
X11572286Y-13579214D02*
X11591333Y-13569690D01*
X11591333Y-13569690D02*
X11619905Y-13569690D01*
X11619905Y-13569690D02*
X11638952Y-13579214D01*
X11638952Y-13579214D02*
X11648476Y-13598262D01*
X11648476Y-13598262D02*
X11648476Y-13703024D01*
X11648476Y-13598262D02*
X11658000Y-13579214D01*
X11658000Y-13579214D02*
X11677048Y-13569690D01*
X11677048Y-13569690D02*
X11705619Y-13569690D01*
X11705619Y-13569690D02*
X11724667Y-13579214D01*
X11724667Y-13579214D02*
X11734190Y-13598262D01*
X11734190Y-13598262D02*
X11734190Y-13703024D01*
X11829429Y-13703024D02*
X11829429Y-13569690D01*
X11829429Y-13588738D02*
X11838952Y-13579214D01*
X11838952Y-13579214D02*
X11858000Y-13569690D01*
X11858000Y-13569690D02*
X11886571Y-13569690D01*
X11886571Y-13569690D02*
X11905619Y-13579214D01*
X11905619Y-13579214D02*
X11915143Y-13598262D01*
X11915143Y-13598262D02*
X11915143Y-13703024D01*
X11915143Y-13598262D02*
X11924667Y-13579214D01*
X11924667Y-13579214D02*
X11943714Y-13569690D01*
X11943714Y-13569690D02*
X11972286Y-13569690D01*
X11972286Y-13569690D02*
X11991333Y-13579214D01*
X11991333Y-13579214D02*
X12000857Y-13598262D01*
X12000857Y-13598262D02*
X12000857Y-13703024D01*
X12391333Y-13493500D02*
X12219905Y-13750643D01*
X12648476Y-13503024D02*
X12667524Y-13503024D01*
X12667524Y-13503024D02*
X12686572Y-13512548D01*
X12686572Y-13512548D02*
X12696095Y-13522071D01*
X12696095Y-13522071D02*
X12705619Y-13541119D01*
X12705619Y-13541119D02*
X12715143Y-13579214D01*
X12715143Y-13579214D02*
X12715143Y-13626833D01*
X12715143Y-13626833D02*
X12705619Y-13664928D01*
X12705619Y-13664928D02*
X12696095Y-13683976D01*
X12696095Y-13683976D02*
X12686572Y-13693500D01*
X12686572Y-13693500D02*
X12667524Y-13703024D01*
X12667524Y-13703024D02*
X12648476Y-13703024D01*
X12648476Y-13703024D02*
X12629429Y-13693500D01*
X12629429Y-13693500D02*
X12619905Y-13683976D01*
X12619905Y-13683976D02*
X12610381Y-13664928D01*
X12610381Y-13664928D02*
X12600857Y-13626833D01*
X12600857Y-13626833D02*
X12600857Y-13579214D01*
X12600857Y-13579214D02*
X12610381Y-13541119D01*
X12610381Y-13541119D02*
X12619905Y-13522071D01*
X12619905Y-13522071D02*
X12629429Y-13512548D01*
X12629429Y-13512548D02*
X12648476Y-13503024D01*
X12800857Y-13683976D02*
X12810381Y-13693500D01*
X12810381Y-13693500D02*
X12800857Y-13703024D01*
X12800857Y-13703024D02*
X12791333Y-13693500D01*
X12791333Y-13693500D02*
X12800857Y-13683976D01*
X12800857Y-13683976D02*
X12800857Y-13703024D01*
X13000857Y-13703024D02*
X12886572Y-13703024D01*
X12943714Y-13703024D02*
X12943714Y-13503024D01*
X12943714Y-13503024D02*
X12924667Y-13531595D01*
X12924667Y-13531595D02*
X12905619Y-13550643D01*
X12905619Y-13550643D02*
X12886572Y-13560167D01*
X13067524Y-13503024D02*
X13191333Y-13503024D01*
X13191333Y-13503024D02*
X13124667Y-13579214D01*
X13124667Y-13579214D02*
X13153238Y-13579214D01*
X13153238Y-13579214D02*
X13172286Y-13588738D01*
X13172286Y-13588738D02*
X13181810Y-13598262D01*
X13181810Y-13598262D02*
X13191333Y-13617309D01*
X13191333Y-13617309D02*
X13191333Y-13664928D01*
X13191333Y-13664928D02*
X13181810Y-13683976D01*
X13181810Y-13683976D02*
X13172286Y-13693500D01*
X13172286Y-13693500D02*
X13153238Y-13703024D01*
X13153238Y-13703024D02*
X13096095Y-13703024D01*
X13096095Y-13703024D02*
X13077048Y-13693500D01*
X13077048Y-13693500D02*
X13067524Y-13683976D01*
X13258000Y-13503024D02*
X13391333Y-13503024D01*
X13391333Y-13503024D02*
X13305619Y-13703024D01*
X13496095Y-13588738D02*
X13477048Y-13579214D01*
X13477048Y-13579214D02*
X13467524Y-13569690D01*
X13467524Y-13569690D02*
X13458000Y-13550643D01*
X13458000Y-13550643D02*
X13458000Y-13541119D01*
X13458000Y-13541119D02*
X13467524Y-13522071D01*
X13467524Y-13522071D02*
X13477048Y-13512548D01*
X13477048Y-13512548D02*
X13496095Y-13503024D01*
X13496095Y-13503024D02*
X13534191Y-13503024D01*
X13534191Y-13503024D02*
X13553238Y-13512548D01*
X13553238Y-13512548D02*
X13562762Y-13522071D01*
X13562762Y-13522071D02*
X13572286Y-13541119D01*
X13572286Y-13541119D02*
X13572286Y-13550643D01*
X13572286Y-13550643D02*
X13562762Y-13569690D01*
X13562762Y-13569690D02*
X13553238Y-13579214D01*
X13553238Y-13579214D02*
X13534191Y-13588738D01*
X13534191Y-13588738D02*
X13496095Y-13588738D01*
X13496095Y-13588738D02*
X13477048Y-13598262D01*
X13477048Y-13598262D02*
X13467524Y-13607786D01*
X13467524Y-13607786D02*
X13458000Y-13626833D01*
X13458000Y-13626833D02*
X13458000Y-13664928D01*
X13458000Y-13664928D02*
X13467524Y-13683976D01*
X13467524Y-13683976D02*
X13477048Y-13693500D01*
X13477048Y-13693500D02*
X13496095Y-13703024D01*
X13496095Y-13703024D02*
X13534191Y-13703024D01*
X13534191Y-13703024D02*
X13553238Y-13693500D01*
X13553238Y-13693500D02*
X13562762Y-13683976D01*
X13562762Y-13683976D02*
X13572286Y-13664928D01*
X13572286Y-13664928D02*
X13572286Y-13626833D01*
X13572286Y-13626833D02*
X13562762Y-13607786D01*
X13562762Y-13607786D02*
X13553238Y-13598262D01*
X13553238Y-13598262D02*
X13534191Y-13588738D01*
X13648476Y-13503024D02*
X13648476Y-13541119D01*
X13724667Y-13503024D02*
X13724667Y-13541119D01*
X14019905Y-13779214D02*
X14010381Y-13769690D01*
X14010381Y-13769690D02*
X13991334Y-13741119D01*
X13991334Y-13741119D02*
X13981810Y-13722071D01*
X13981810Y-13722071D02*
X13972286Y-13693500D01*
X13972286Y-13693500D02*
X13962762Y-13645881D01*
X13962762Y-13645881D02*
X13962762Y-13607786D01*
X13962762Y-13607786D02*
X13972286Y-13560167D01*
X13972286Y-13560167D02*
X13981810Y-13531595D01*
X13981810Y-13531595D02*
X13991334Y-13512548D01*
X13991334Y-13512548D02*
X14010381Y-13483976D01*
X14010381Y-13483976D02*
X14019905Y-13474452D01*
X14200857Y-13703024D02*
X14086572Y-13703024D01*
X14143714Y-13703024D02*
X14143714Y-13503024D01*
X14143714Y-13503024D02*
X14124667Y-13531595D01*
X14124667Y-13531595D02*
X14105619Y-13550643D01*
X14105619Y-13550643D02*
X14086572Y-13560167D01*
X14438953Y-13703024D02*
X14438953Y-13503024D01*
X14524667Y-13703024D02*
X14524667Y-13598262D01*
X14524667Y-13598262D02*
X14515143Y-13579214D01*
X14515143Y-13579214D02*
X14496096Y-13569690D01*
X14496096Y-13569690D02*
X14467524Y-13569690D01*
X14467524Y-13569690D02*
X14448476Y-13579214D01*
X14448476Y-13579214D02*
X14438953Y-13588738D01*
X14648476Y-13703024D02*
X14629429Y-13693500D01*
X14629429Y-13693500D02*
X14619905Y-13683976D01*
X14619905Y-13683976D02*
X14610381Y-13664928D01*
X14610381Y-13664928D02*
X14610381Y-13607786D01*
X14610381Y-13607786D02*
X14619905Y-13588738D01*
X14619905Y-13588738D02*
X14629429Y-13579214D01*
X14629429Y-13579214D02*
X14648476Y-13569690D01*
X14648476Y-13569690D02*
X14677048Y-13569690D01*
X14677048Y-13569690D02*
X14696096Y-13579214D01*
X14696096Y-13579214D02*
X14705619Y-13588738D01*
X14705619Y-13588738D02*
X14715143Y-13607786D01*
X14715143Y-13607786D02*
X14715143Y-13664928D01*
X14715143Y-13664928D02*
X14705619Y-13683976D01*
X14705619Y-13683976D02*
X14696096Y-13693500D01*
X14696096Y-13693500D02*
X14677048Y-13703024D01*
X14677048Y-13703024D02*
X14648476Y-13703024D01*
X14829429Y-13703024D02*
X14810381Y-13693500D01*
X14810381Y-13693500D02*
X14800857Y-13674452D01*
X14800857Y-13674452D02*
X14800857Y-13503024D01*
X14981810Y-13693500D02*
X14962762Y-13703024D01*
X14962762Y-13703024D02*
X14924667Y-13703024D01*
X14924667Y-13703024D02*
X14905619Y-13693500D01*
X14905619Y-13693500D02*
X14896096Y-13674452D01*
X14896096Y-13674452D02*
X14896096Y-13598262D01*
X14896096Y-13598262D02*
X14905619Y-13579214D01*
X14905619Y-13579214D02*
X14924667Y-13569690D01*
X14924667Y-13569690D02*
X14962762Y-13569690D01*
X14962762Y-13569690D02*
X14981810Y-13579214D01*
X14981810Y-13579214D02*
X14991334Y-13598262D01*
X14991334Y-13598262D02*
X14991334Y-13617309D01*
X14991334Y-13617309D02*
X14896096Y-13636357D01*
X15058000Y-13779214D02*
X15067524Y-13769690D01*
X15067524Y-13769690D02*
X15086572Y-13741119D01*
X15086572Y-13741119D02*
X15096096Y-13722071D01*
X15096096Y-13722071D02*
X15105619Y-13693500D01*
X15105619Y-13693500D02*
X15115143Y-13645881D01*
X15115143Y-13645881D02*
X15115143Y-13607786D01*
X15115143Y-13607786D02*
X15105619Y-13560167D01*
X15105619Y-13560167D02*
X15096096Y-13531595D01*
X15096096Y-13531595D02*
X15086572Y-13512548D01*
X15086572Y-13512548D02*
X15067524Y-13483976D01*
X15067524Y-13483976D02*
X15058000Y-13474452D01*
X15419905Y-13779214D02*
X15410381Y-13769690D01*
X15410381Y-13769690D02*
X15391334Y-13741119D01*
X15391334Y-13741119D02*
X15381810Y-13722071D01*
X15381810Y-13722071D02*
X15372286Y-13693500D01*
X15372286Y-13693500D02*
X15362762Y-13645881D01*
X15362762Y-13645881D02*
X15362762Y-13607786D01*
X15362762Y-13607786D02*
X15372286Y-13560167D01*
X15372286Y-13560167D02*
X15381810Y-13531595D01*
X15381810Y-13531595D02*
X15391334Y-13512548D01*
X15391334Y-13512548D02*
X15410381Y-13483976D01*
X15410381Y-13483976D02*
X15419905Y-13474452D01*
X15496096Y-13569690D02*
X15496096Y-13703024D01*
X15496096Y-13588738D02*
X15505619Y-13579214D01*
X15505619Y-13579214D02*
X15524667Y-13569690D01*
X15524667Y-13569690D02*
X15553238Y-13569690D01*
X15553238Y-13569690D02*
X15572286Y-13579214D01*
X15572286Y-13579214D02*
X15581810Y-13598262D01*
X15581810Y-13598262D02*
X15581810Y-13703024D01*
X15705619Y-13703024D02*
X15686572Y-13693500D01*
X15686572Y-13693500D02*
X15677048Y-13683976D01*
X15677048Y-13683976D02*
X15667524Y-13664928D01*
X15667524Y-13664928D02*
X15667524Y-13607786D01*
X15667524Y-13607786D02*
X15677048Y-13588738D01*
X15677048Y-13588738D02*
X15686572Y-13579214D01*
X15686572Y-13579214D02*
X15705619Y-13569690D01*
X15705619Y-13569690D02*
X15734191Y-13569690D01*
X15734191Y-13569690D02*
X15753238Y-13579214D01*
X15753238Y-13579214D02*
X15762762Y-13588738D01*
X15762762Y-13588738D02*
X15772286Y-13607786D01*
X15772286Y-13607786D02*
X15772286Y-13664928D01*
X15772286Y-13664928D02*
X15762762Y-13683976D01*
X15762762Y-13683976D02*
X15753238Y-13693500D01*
X15753238Y-13693500D02*
X15734191Y-13703024D01*
X15734191Y-13703024D02*
X15705619Y-13703024D01*
X15829429Y-13569690D02*
X15905619Y-13569690D01*
X15858000Y-13503024D02*
X15858000Y-13674452D01*
X15858000Y-13674452D02*
X15867524Y-13693500D01*
X15867524Y-13693500D02*
X15886572Y-13703024D01*
X15886572Y-13703024D02*
X15905619Y-13703024D01*
X16124667Y-13569690D02*
X16124667Y-13769690D01*
X16124667Y-13579214D02*
X16143715Y-13569690D01*
X16143715Y-13569690D02*
X16181810Y-13569690D01*
X16181810Y-13569690D02*
X16200858Y-13579214D01*
X16200858Y-13579214D02*
X16210381Y-13588738D01*
X16210381Y-13588738D02*
X16219905Y-13607786D01*
X16219905Y-13607786D02*
X16219905Y-13664928D01*
X16219905Y-13664928D02*
X16210381Y-13683976D01*
X16210381Y-13683976D02*
X16200858Y-13693500D01*
X16200858Y-13693500D02*
X16181810Y-13703024D01*
X16181810Y-13703024D02*
X16143715Y-13703024D01*
X16143715Y-13703024D02*
X16124667Y-13693500D01*
X16334191Y-13703024D02*
X16315143Y-13693500D01*
X16315143Y-13693500D02*
X16305619Y-13674452D01*
X16305619Y-13674452D02*
X16305619Y-13503024D01*
X16496096Y-13703024D02*
X16496096Y-13598262D01*
X16496096Y-13598262D02*
X16486572Y-13579214D01*
X16486572Y-13579214D02*
X16467524Y-13569690D01*
X16467524Y-13569690D02*
X16429429Y-13569690D01*
X16429429Y-13569690D02*
X16410381Y-13579214D01*
X16496096Y-13693500D02*
X16477048Y-13703024D01*
X16477048Y-13703024D02*
X16429429Y-13703024D01*
X16429429Y-13703024D02*
X16410381Y-13693500D01*
X16410381Y-13693500D02*
X16400858Y-13674452D01*
X16400858Y-13674452D02*
X16400858Y-13655405D01*
X16400858Y-13655405D02*
X16410381Y-13636357D01*
X16410381Y-13636357D02*
X16429429Y-13626833D01*
X16429429Y-13626833D02*
X16477048Y-13626833D01*
X16477048Y-13626833D02*
X16496096Y-13617309D01*
X16562762Y-13569690D02*
X16638953Y-13569690D01*
X16591334Y-13503024D02*
X16591334Y-13674452D01*
X16591334Y-13674452D02*
X16600858Y-13693500D01*
X16600858Y-13693500D02*
X16619905Y-13703024D01*
X16619905Y-13703024D02*
X16638953Y-13703024D01*
X16781810Y-13693500D02*
X16762762Y-13703024D01*
X16762762Y-13703024D02*
X16724667Y-13703024D01*
X16724667Y-13703024D02*
X16705619Y-13693500D01*
X16705619Y-13693500D02*
X16696096Y-13674452D01*
X16696096Y-13674452D02*
X16696096Y-13598262D01*
X16696096Y-13598262D02*
X16705619Y-13579214D01*
X16705619Y-13579214D02*
X16724667Y-13569690D01*
X16724667Y-13569690D02*
X16762762Y-13569690D01*
X16762762Y-13569690D02*
X16781810Y-13579214D01*
X16781810Y-13579214D02*
X16791334Y-13598262D01*
X16791334Y-13598262D02*
X16791334Y-13617309D01*
X16791334Y-13617309D02*
X16696096Y-13636357D01*
X16962762Y-13703024D02*
X16962762Y-13503024D01*
X16962762Y-13693500D02*
X16943715Y-13703024D01*
X16943715Y-13703024D02*
X16905620Y-13703024D01*
X16905620Y-13703024D02*
X16886572Y-13693500D01*
X16886572Y-13693500D02*
X16877048Y-13683976D01*
X16877048Y-13683976D02*
X16867524Y-13664928D01*
X16867524Y-13664928D02*
X16867524Y-13607786D01*
X16867524Y-13607786D02*
X16877048Y-13588738D01*
X16877048Y-13588738D02*
X16886572Y-13579214D01*
X16886572Y-13579214D02*
X16905620Y-13569690D01*
X16905620Y-13569690D02*
X16943715Y-13569690D01*
X16943715Y-13569690D02*
X16962762Y-13579214D01*
X17038953Y-13779214D02*
X17048477Y-13769690D01*
X17048477Y-13769690D02*
X17067524Y-13741119D01*
X17067524Y-13741119D02*
X17077048Y-13722071D01*
X17077048Y-13722071D02*
X17086572Y-13693500D01*
X17086572Y-13693500D02*
X17096096Y-13645881D01*
X17096096Y-13645881D02*
X17096096Y-13607786D01*
X17096096Y-13607786D02*
X17086572Y-13560167D01*
X17086572Y-13560167D02*
X17077048Y-13531595D01*
X17077048Y-13531595D02*
X17067524Y-13512548D01*
X17067524Y-13512548D02*
X17048477Y-13483976D01*
X17048477Y-13483976D02*
X17038953Y-13474452D01*
M02*
